<?xml version="1.0" standalone="no"?>
<!DOCTYPE svg PUBLIC "-//W3C//DTD SVG 20010904//EN"
 "http://www.w3.org/TR/2001/REC-SVG-20010904/DTD/svg10.dtd">
<svg version="1.0" xmlns="http://www.w3.org/2000/svg"
 width="46.000000pt" height="46.000000pt" viewBox="0 0 46.000000 46.000000"
 preserveAspectRatio="xMidYMid meet">

<g transform="translate(0.000000,46.000000) scale(0.100000,-0.100000)"
fill="#000000" stroke="none">
<path d="M324 442 c-9 -14 -8 -22 2 -37 14 -18 14 -18 28 0 10 15 11 23 2 37
-6 10 -13 18 -16 18 -3 0 -10 -8 -16 -18z"/>
<path d="M55 430 c-9 -15 4 -30 20 -23 8 3 15 9 15 13 0 12 -29 20 -35 10z"/>
<path d="M185 383 c-16 -3 -37 -10 -45 -17 -8 -7 -27 -17 -42 -24 -16 -6 -28
-16 -28 -21 0 -6 -11 -22 -26 -36 -14 -14 -23 -29 -20 -34 3 -5 -1 -14 -9 -21
-19 -16 -19 -44 1 -64 11 -12 36 -16 97 -16 70 0 85 -3 100 -20 9 -11 25 -20
35 -20 10 0 25 -9 35 -20 13 -16 29 -20 76 -20 68 0 87 14 77 60 -3 17 -1 30
4 30 16 0 21 39 9 62 -7 13 -14 30 -15 38 -2 8 -11 22 -21 30 -10 9 -23 25
-29 35 -6 11 -19 22 -29 24 -10 2 -25 9 -33 17 -7 8 -22 14 -31 14 -10 0 -31
2 -47 4 -16 2 -42 2 -59 -1z m63 -32 l4 -23 14 21 c16 23 39 27 49 11 4 -6 1
-17 -5 -25 -15 -18 -6 -19 22 -4 16 8 24 8 35 -4 13 -13 13 -17 -6 -36 -12
-12 -21 -27 -21 -33 0 -7 9 -2 19 11 23 29 55 25 59 -9 2 -14 11 -33 19 -42
11 -13 12 -21 3 -37 -15 -29 -54 -27 -74 4 -9 14 -22 25 -28 25 -6 0 -4 -8 5
-18 23 -25 21 -32 -5 -34 -13 -1 2 -4 32 -7 50 -5 55 -8 55 -30 0 -13 -8 -29
-18 -35 -15 -9 -22 -6 -39 14 -20 24 -20 24 -14 3 7 -20 4 -23 -22 -23 -16 0
-35 7 -42 15 -10 13 -9 15 11 17 13 0 2 4 -25 7 -55 7 -73 27 -29 34 15 2 -9
5 -54 6 -85 1 -101 10 -65 37 9 7 12 14 5 14 -6 0 -20 -11 -31 -25 -11 -14
-29 -25 -40 -25 -20 0 -52 24 -52 39 0 17 26 31 58 31 42 0 72 16 72 38 0 13
-3 12 -16 -6 -21 -31 -84 -32 -84 -1 0 12 8 23 18 26 10 2 22 14 27 26 6 12
19 24 30 26 11 2 24 10 28 18 6 9 17 13 31 9 11 -3 28 -1 36 4 21 14 34 7 38
-19z"/>
<path d="M170 318 c0 -24 35 -40 78 -35 l37 4 -42 1 c-31 2 -46 8 -57 24 -13
18 -16 19 -16 6z"/>
<path d="M178 238 c12 -6 22 -18 23 -27 0 -11 2 -12 6 -3 7 17 -15 42 -36 41
-11 0 -10 -3 7 -11z"/>
<path d="M291 237 c-1 -10 -11 -22 -23 -27 -16 -6 -18 -9 -7 -9 21 -1 43 24
36 41 -3 8 -6 6 -6 -5z"/>
<path d="M144 96 c-17 -18 8 -37 28 -22 15 11 15 13 0 23 -13 7 -20 7 -28 -1z"/>
<path d="M36 72 c-3 -6 -1 -14 5 -17 15 -10 25 3 12 16 -7 7 -13 7 -17 1z"/>
<path d="M342 21 c2 -7 7 -12 11 -12 12 1 9 15 -3 20 -7 2 -11 -2 -8 -8z"/>
</g>
</svg>
