<?xml version="1.0" standalone="no"?>
<!DOCTYPE svg PUBLIC "-//W3C//DTD SVG 20010904//EN"
 "http://www.w3.org/TR/2001/REC-SVG-20010904/DTD/svg10.dtd">
<svg version="1.0" xmlns="http://www.w3.org/2000/svg"
 width="46.000000pt" height="46.000000pt" viewBox="0 0 46.000000 46.000000"
 preserveAspectRatio="xMidYMid meet">

<g transform="translate(0.000000,46.000000) scale(0.100000,-0.100000)"
fill="#000000" stroke="none">
<path d="M60 245 l0 -215 118 2 117 2 -113 3 -112 4 2 202 3 202 155 0 155 0
5 -140 6 -140 2 148 2 147 -170 0 -170 0 0 -215z"/>
<path d="M42 218 l-2 -218 118 2 117 2 -112 3 -113 4 -3 212 -2 212 -3 -217z"/>
<path d="M190 305 c0 -39 3 -45 21 -45 33 0 59 19 59 43 0 31 -18 47 -52 47
-27 0 -28 -2 -28 -45z m60 20 c18 -21 5 -45 -25 -45 -21 0 -25 5 -25 30 0 23
5 30 19 30 10 0 24 -7 31 -15z"/>
<path d="M193 213 c26 -2 67 -2 90 0 23 2 2 3 -48 3 -50 0 -68 -1 -42 -3z"/>
<path d="M193 173 c26 -2 67 -2 90 0 23 2 2 3 -48 3 -50 0 -68 -1 -42 -3z"/>
<path d="M193 143 c26 -2 67 -2 90 0 23 2 2 3 -48 3 -50 0 -68 -1 -42 -3z"/>
<path d="M368 128 c-56 -19 -53 -102 4 -122 55 -19 107 48 75 98 -19 28 -43
36 -79 24z m68 -33 c33 -50 -20 -104 -71 -71 -27 18 -34 63 -13 84 21 21 66
14 84 -13z"/>
<path d="M391 54 c0 -11 3 -14 6 -6 3 7 2 16 -1 19 -3 4 -6 -2 -5 -13z"/>
</g>
</svg>
