<?xml version="1.0" standalone="no"?>
<!DOCTYPE svg PUBLIC "-//W3C//DTD SVG 20010904//EN"
 "http://www.w3.org/TR/2001/REC-SVG-20010904/DTD/svg10.dtd">
<svg version="1.0" xmlns="http://www.w3.org/2000/svg"
 width="46.000000pt" height="46.000000pt" viewBox="0 0 46.000000 46.000000"
 preserveAspectRatio="xMidYMid meet">

<g transform="translate(0.000000,46.000000) scale(0.100000,-0.100000)"
fill="#000000" stroke="none">
<path d="M147 446 c-4 -9 -14 -16 -23 -16 -9 0 -13 -5 -10 -12 3 -7 9 -20 12
-29 7 -19 64 -22 64 -3 0 7 3 19 6 28 4 9 1 16 -6 16 -7 0 -18 7 -25 16 -11
16 -12 16 -18 0z m31 -34 c2 -7 -4 -15 -13 -18 -21 -8 -40 17 -22 28 15 10 30
5 35 -10z"/>
<path d="M414 449 c-10 -17 23 -46 37 -32 7 7 9 19 6 27 -7 18 -33 21 -43 5z
m30 -20 c-3 -5 -10 -7 -15 -3 -5 3 -7 10 -3 15 3 5 10 7 15 3 5 -3 7 -10 3
-15z"/>
<path d="M271 412 c-6 -12 -21 -22 -31 -22 -24 0 -26 -13 -5 -30 9 -7 13 -20
10 -30 -4 -14 2 -17 38 -17 36 0 43 3 40 17 -2 9 3 22 11 29 21 18 20 31 -3
31 -10 0 -25 10 -33 22 l-15 22 -12 -22z m44 -32 c10 0 11 -5 2 -24 -15 -31
-49 -31 -64 0 -9 19 -8 24 3 24 8 0 17 7 21 16 5 15 7 15 15 0 5 -9 15 -16 23
-16z"/>
<path d="M151 326 c13 -14 26 -23 28 -20 6 6 -30 44 -42 44 -5 0 1 -11 14 -24z"/>
<path d="M423 335 c-9 -10 -9 -14 1 -18 21 -8 40 8 24 20 -9 8 -16 7 -25 -2z"/>
<path d="M55 316 c-11 -6 -21 -11 -23 -12 -1 -1 3 -12 10 -25 14 -25 58 -35
58 -13 0 7 2 18 5 26 8 21 -26 37 -50 24z m35 -32 c0 -8 -7 -14 -15 -14 -15 0
-21 21 -9 33 10 9 24 -2 24 -19z"/>
<path d="M196 304 c-6 -15 -4 -15 11 -3 10 7 20 15 22 16 2 2 -3 3 -11 3 -9 0
-19 -7 -22 -16z"/>
<path d="M247 282 c-10 -10 -17 -27 -17 -38 0 -16 2 -15 13 6 7 13 24 30 37
37 23 12 23 13 4 13 -11 0 -28 -8 -37 -18z"/>
<path d="M357 276 c-25 -19 -12 -54 18 -48 29 5 38 35 16 49 -12 8 -22 7 -34
-1z m27 -27 c-3 -5 -10 -7 -15 -3 -5 3 -7 10 -3 15 3 5 10 7 15 3 5 -3 7 -10
3 -15z"/>
<path d="M157 265 c20 -8 35 -23 39 -39 3 -14 10 -26 15 -26 5 0 6 8 2 18 -10
30 -46 62 -67 62 -16 -1 -13 -4 11 -15z"/>
<path d="M14 236 c-8 -8 -7 -15 0 -22 8 -8 15 -7 22 0 8 8 7 15 0 22 -8 8 -15
7 -22 0z"/>
<path d="M270 230 c-11 -11 -20 -30 -19 -42 1 -22 1 -22 8 2 4 15 21 32 41 42
29 15 31 18 13 18 -13 0 -32 -9 -43 -20z"/>
<path d="M150 160 c0 -80 0 -81 40 -123 l40 -42 40 42 c38 40 40 46 40 103 0
33 -4 60 -10 60 -5 0 -10 -25 -10 -55 0 -58 2 -57 -60 -57 -63 0 -60 -3 -60
77 0 43 -4 75 -10 75 -6 0 -10 -33 -10 -80z m127 -94 c-5 -14 -89 -15 -94 -1
-2 6 19 10 47 11 32 0 49 -3 47 -10z m-37 -36 c0 -5 -4 -10 -10 -10 -5 0 -10
5 -10 10 0 6 5 10 10 10 6 0 10 -4 10 -10z"/>
</g>
</svg>
