<?xml version="1.0" standalone="no"?>
<!DOCTYPE svg PUBLIC "-//W3C//DTD SVG 20010904//EN"
 "http://www.w3.org/TR/2001/REC-SVG-20010904/DTD/svg10.dtd">
<svg version="1.0" xmlns="http://www.w3.org/2000/svg"
 width="46.000000pt" height="46.000000pt" viewBox="0 0 46.000000 46.000000"
 preserveAspectRatio="xMidYMid meet">

<g transform="translate(0.000000,46.000000) scale(0.100000,-0.100000)"
fill="#000000" stroke="none">
<path d="M317 440 c-14 -17 -14 -20 1 -33 15 -12 19 -12 32 2 13 14 13 18 -1
32 -15 15 -18 15 -32 -1z"/>
<path d="M44 429 c-10 -17 13 -36 27 -22 12 12 4 33 -11 33 -5 0 -12 -5 -16
-11z"/>
<path d="M30 255 l0 -115 200 0 200 0 0 115 0 115 -200 0 -200 0 0 -115z m388
-2 l3 -103 -191 0 -190 0 0 98 c0 54 3 102 7 106 4 3 88 5 187 4 l181 -3 3
-102z"/>
<path d="M226 259 c-10 -27 -16 -52 -13 -55 3 -3 13 18 22 46 22 67 14 75 -9
9z"/>
<path d="M157 282 c-22 -24 -21 -35 3 -57 11 -10 20 -13 20 -8 0 6 -7 16 -15
23 -14 12 -14 15 1 31 10 11 15 21 12 24 -3 3 -12 -3 -21 -13z"/>
<path d="M280 295 c0 -5 7 -16 15 -25 14 -15 14 -18 0 -30 -8 -7 -15 -17 -15
-23 0 -5 9 -2 20 8 11 10 20 23 20 30 0 7 -9 20 -20 30 -11 10 -20 14 -20 10z"/>
<path d="M112 93 c65 -2 171 -2 235 0 65 1 12 3 -117 3 -129 0 -182 -2 -118
-3z"/>
<path d="M275 60 c-11 -17 5 -32 21 -19 7 6 11 15 8 20 -7 12 -21 11 -29 -1z"/>
<path d="M137 42 c-15 -16 -15 -19 1 -28 25 -16 44 6 27 29 -11 16 -13 16 -28
-1z"/>
<path d="M382 31 c2 -7 7 -12 11 -12 12 1 9 15 -3 20 -7 2 -11 -2 -8 -8z"/>
</g>
</svg>
